<svg width="600" height="600" version="1.1" viewBox="0 0 600 600" xmlns="http://www.w3.org/2000/svg">
 <circle cx="300" cy="300" r="300" fill="#fff" stroke-dasharray="39.5374, 4.94218" stroke-opacity=".61706" stroke-width="4.9422"/>
 <g transform="translate(-244.83 -201.29)">
  <path d="m518.64 800.08c-39.366-3.5655-80.296-15.491-110.77-32.274-3.9859-2.1955-9.2038-5.0645-11.595-6.3756-41.08-22.521-105.51-87.836-95.167-96.473 1.7475-1.4591 202.42-2.2332 208.39-0.80393 9.8895 2.3659 11.798 16.999 2.8259 21.662-2.0325 1.0564-18.571 1.3726-86.382 1.6516-93.905 0.38639-88.231-0.13579-73.635 6.776 12.432 5.8874 13.415 5.964 81.651 6.3652 69.736 0.40998 65.653-0.0307 68.46 7.3891 1.5724 4.1565 0.29323 7.6158-3.9978 10.811-2.6603 1.981-3.4009 2.0026-58.943 1.7146-35.635-0.18479-55.895 0.0475-55.283 0.63392 0.53146 0.50907 4.6623 2.1349 9.1797 3.613 13.846 4.5305 18.789 7.5836 30.21 18.66 34.831 33.78 125.88 45.025 195.9 24.196 12.469-3.7091 39.328-13.063 37.685-13.124-1.5394-0.0572-16.897 2.0644-26.573 3.6708-33.226 5.5164-29.473 5.2348-75.903 5.6962-56.518 0.56158-64.131-1.7744-57.536-17.654 3.2818-7.9023-4.5557-7.356 105.6-7.3601 66.9-3e-3 98.632-0.33106 100.49-1.0406 4.1878-1.5964 7.0684-4.8085 7.0684-7.882v-2.747l-72.713-2e-3c-85.135-2e-3 -82.092 0.4634-83.533-12.769-1.304-11.97 2.3762-13.095 45.124-13.803 63.94-1.0586 82.153-6.1363 98.002-27.323 7.2865-9.7404 4.8709-9.2949 50.398-9.2949 50.923 0 49.762-1.2354 26.486 28.193-60.159 76.057-156.71 116.84-255.44 107.89zm179.86-96.875c5.4756-2.6039 14.282-10.449 16.581-14.771 0.85072-1.5993-0.54134-0.86533-4.9273 2.5978-3.3622 2.6548-10.026 7.3319-14.81 10.394-9.4816 6.0694-7.8271 7.0025 3.1556 1.7797zm29.698-53.66c-5.4002-0.59847-5.5832-0.69682-2.6684-1.4345 1.7211-0.43562 3.3815-1.2025 3.6896-1.7041 0.30817-0.50165 2.0959-1.5576 3.9727-2.3466 19.591-8.2353 45.693-34.229 57.59-57.352 4.1046-7.9773 8.4376-17.824 8.4376-19.174 0-0.52102 0.61026-2.3258 1.3561-4.0107 14.764-33.351 8.7555-83.696-13.757-115.27l-5.1538-7.2284 4.3396-8.334c22.561-43.327-5.2375-102.79-71.269-152.45l-9.597-7.2174c-1.4177 7.7478-5.1676 12.174-9.8005 14.83-3.6203 2.0556-5.4428 3.9042-6.9728 7.0725-4.5184 9.3568-13.212 16.318-27.517 22.035-23.583 9.4247-29.994 16.871-28.528 33.136 3.1313 34.742 60.022 56.37 77.083 29.304 3.853-6.1126 3.763-8.0302-0.37688-8.0302-17.728 0-35.432-12.011-35.42-24.03 0.0273-27.81 79.489-27.222 86.947 0.6428 3.0296 11.319-7.9224 21.187-25.53 23.002l-6.1762 0.63661-1.0933 4.3682c-1.8265 7.2977-5.8118 14.029-11.791 19.916l-5.6875 5.5991 4.1298 1.6622c71.933 28.952 99.8 105.98 64.822 179.16-2.9388 6.1489-5.6696 11.399-6.0685 11.666-0.39892 0.26734-1.4565 1.7985-2.3501 3.4026-5.3318 9.5705-20.677 27.716-29.396 34.76-7.458 6.0251-9.6222 7.4484-19.496 12.821l-7.2471 3.9438h-188.09l-3.2494-3.5672c-4.4708-4.9081-5.2596-9.6808-2.4735-14.965 3.2498-6.1632 4.4879-6.456 30.995-7.3297 47.632-1.57 70.341-6.9628 106.75-25.35 14.394-7.2692 35.292-20.613 35.292-22.535 0-0.34091-98.787-0.73016-219.53-0.86499l-219.53-0.24514-2.2178-8.7495c-39.461-155.68 75.726-329.55 237.87-359.05 239.75-43.63 431.54 208.33 323.44 424.92l-9.0975 18.228-26.241 5e-3c-14.433 3e-3 -30.372 0.17719-35.421 0.38759-5.0488 0.21041-11.789 0.0934-14.977-0.25996zm-71.458-16.324c6.1022-3.0062 10.405-6.9475 6.2341-5.71-2.7371 0.81206-14.494 7.1818-14.494 7.8527 0 1.1152 3.4786 0.21281 8.2601-2.1427zm62.49-9.1137c12.222-6.1008 22.622-16.57 28.402-28.589 3.5478-7.378 2.7521-8.139-1.9433-1.8587-6.9767 9.3317-16.864 19.02-27.636 27.078-10.587 7.9198-10.193 9.0458 1.1777 3.3698zm6.5892-39.726c33.9-45.222 25.878-103.85-14.094-103-6.8832 0.14647-17.081-0.1014-22.661-0.55082-10.099-0.81334-10.233-0.79542-28.988 3.8719-44.639 11.109-79.331 1.8312-79.214-21.184 0.16038-31.461 63.33-38.021 96.176-9.9871 18.729 15.985 45.493 17.31 48.647 2.4076 2.7664-13.073-12.437-26.827-39.036-35.313-13.022-4.1548-32.619-10.075-41.067-12.407-12.813-3.537-25.848-1.9174-46.865 5.8229-16.806 6.1894-20.573 6.9137-35.962 6.9137-7.5979 0-18.051 0.6261-23.229 1.3914-44.166 6.527-75.514-2.8318-75.589-22.567-0.10502-27.502 60.05-34.684 95.236-11.371 18.164 12.035 30.55 14.657 45.471 9.6274 21.407-7.216 17.725-30.656-7.3132-46.55l-8.627-5.4766-4.1749 3.2062c-50.703 38.938-113.86-32.059-68.503-77.001 40.14-39.769 105.58 5.985 83.17 58.149-2.6281 6.1167-2.6588 6.067 7.0253 11.375 7.6463 4.1914 8.617 4.0392 10.298-1.6146 4.5353-15.258 14.781-24.99 33.928-32.225 11.252-4.2522 21.218-10.412 21.226-13.121 9.7e-4 -0.37938-4.314-0.55208-9.5891-0.38377-53.111 1.6945-57.133-38.991-4.549-46.01 6.0011-0.80106 5.6462-1.0658-10.173-7.5903-46.714-19.266-98.083-24.842-148.58-16.127-143.23 24.718-250.62 166.98-175.98 233.12 3.9937 3.5389 14.225 13.495 22.735 22.126 25.405 25.762 37.798 29.905 86.069 28.769 29.384-0.69138 33.47 0.3027 58.887 14.326 16.827 9.2845 36.575 14.787 73.551 20.495 13.679 2.1116 16.927 3.0587 15.481 4.5146-1.2647 1.2731-154.18 1.5443-165.11 0.29287-14.897-1.7056-23.853-5.2377-39.511-15.582-12.576-8.3082-18.632-10.949-37.628-16.407-18.441-5.2989-20.926-6.2185-32.234-11.926-9.4698-4.78-17.554-10.542-25.434-18.129-3.3216-3.198-6.0393-5.6154-6.0393-5.3719 0 13.051 32.75 38.457 62.883 48.78 14.897 5.1039 20.739 7.7621 29.622 13.479 12.959 8.34 29.256 13.981 49.055 16.978 5.6387 0.85374 47.861 1.3202 156.05 1.7242 160.98 0.60106 151.63 0.22719 153.55 6.1363 1.6679 5.1271-3.6576 19.51-9.9313 26.821l-3.0228 3.5228 4.6163-3.7627c2.539-2.0695 6.7831-6.6531 9.4314-10.186zm-71.058-35.816c-9.8834-0.99118-6.5006-2.2924 12.073-4.644 27.585-3.4927 43.227-9.9199 56.709-23.302l8.156-8.0956 0.99036 2.5802c3.1447 8.1927 0.096 27.304-5.0506 31.661l-2.9703 2.5146-33.021-0.16342c-18.162-0.0899-34.76-0.33785-36.886-0.55105zm-358.01 3.2302c0-0.22041-2.7964-2.4084-6.2142-4.8621-5.9778-4.2916-21.098-19.84-24.827-25.53-2.8323-4.3219-2.125-1.8637 1.6119 5.6019 4.389 8.7685 13.444 18.011 20.74 21.169 2.9188 1.2636 5.9592 2.6596 6.7564 3.1024 1.7684 0.98208 1.9326 1.0261 1.9326 0.51853zm28.988-1.3842c0-0.44703-2.5286-1.5201-5.6192-2.3846-7.6324-2.1349-24.042-10.521-30.255-15.463-4.656-3.7028-4.9106-3.7984-3.0274-1.1376 7.0376 9.9436 18.802 16.684 32.667 18.717 3.1636 0.46381 5.8608 0.89663 5.9936 0.96183s0.24157-0.2472 0.24157-0.69423zm92.763-15.635c0-1.0836-12.105-5.2552-13.699-4.7208-1.3175 0.44185 3.6103 4.1856 6.4516 4.9013 3.3523 0.84446 7.2471 0.74744 7.2471-0.18054zm-94.193-50.799c0-1.2073-14.976-8.7133-23.909-17.061-0.78233-0.73105 9.3455 14.426 19.561 16.764 4.0471 0.9262 4.3483 2.2308 4.3483 0.29762zm490.75-32.753c0.55455-5.874-0.54875-17.153-1.8011-18.413-1.2293-1.2368-1.5072 1.3799-1.7277 16.27-0.25133 16.968 2.0003 18.335 3.5288 2.1436zm-145.4 8.3382c-5.7337-3.9571-22.144-12.108-22.144-10.999 0 0.96728 9.2438 6.5061 14.011 8.3954 3.1887 1.2637 6.2035 2.6404 6.6995 3.0593 0.49603 0.41894 1.112 0.55025 1.3689 0.29181 0.25687-0.25843 0.28586-0.59492 0.0645-0.74774zm-106.69-55.742 5.7977 2.5044-5.7977-2.5044c-18.078-8.7505-27.887-20.488-47.805-20.399l-13.794 0.49585c30.804-3.4418 41.073 19.976 61.599 19.903zm-277.6 244.38c-2.0457-2.5047-11.806-21.863-11.806-23.416 0-2.494 175.2-2.4871 180.42 7e-3 5.9896 2.8596 7.2622 10.136 2.4401 13.952-2.3091 1.8274-4.035 1.9236-34.911 1.9462-35.553 0.026-38.358 0.3501-46.433 5.3649l-5.4119 3.3611h-41.654c-32.15 0-41.881-0.27728-42.647-1.2152zm-17.834-39.373c-2.1252-2.4168-7.5-15.553-7.5-18.33v-2.3286h105.84c114 0 110.29-0.16207 113.86 4.9744 2.1637 3.1079 1.9789 5.1398-0.75851 8.3386l-2.3342 2.7276h-97.294l-12.779 6.3191h-48.77c-45.234 0-48.879-0.12336-50.266-1.7013z" fill="#151415" stroke-width=".96922"/>
  <ellipse cx="413.07" cy="392.44" rx="4.4813" ry="4.5086"/>
  <ellipse cx="471.92" cy="350.66" rx="6.2738" ry="6.312"/>
  <ellipse cx="365.86" cy="456.76" rx="6.5726" ry="6.6126"/>
  <ellipse cx="410.3" cy="486.89" rx="3.6597" ry="3.682"/>
  <ellipse cx="512.55" cy="598.33" rx="6.2738" ry="6.312"/>
  <ellipse cx="574.09" cy="598.33" rx="4.4813" ry="4.5086"/>
  <ellipse cx="606.36" cy="598.33" rx="3.2863" ry="3.3063"/>
  <ellipse cx="487.46" cy="634.4" rx="4.4813" ry="4.5086"/>
  <ellipse cx="539.44" cy="675.88" rx="6.8713" ry="6.9132"/>
  <ellipse cx="569.91" cy="675.88" rx="4.4813" ry="4.5086"/>
  <ellipse cx="650.72" cy="677.23" rx="3.4357" ry="3.4566"/>
  <ellipse cx="528.09" cy="716.16" rx="4.4813" ry="4.5086"/>
  <ellipse cx="470.73" cy="750.42" rx="6.2738" ry="6.312"/>
  <ellipse cx="661.33" cy="518.38" rx="4.4813" ry="4.5086"/>
  <ellipse cx="525.7" cy="465.48" rx="9.2614" ry="9.3177"/>
 </g>
</svg>
