<svg width="601.13" height="600.08" version="1.1" viewBox="0 0 601.13 600.08" xmlns="http://www.w3.org/2000/svg">
 <ellipse cx="299.44" cy="300.02" rx="299.44" ry="299.96" fill="#fff" stroke-dasharray="39.5374, 4.94218" stroke-opacity=".61706" stroke-width="4.9372"/>
 <g>
  <path d="m273.3 598.77c-45.457-3.2121-93.003-20.606-123.42-37.387-41.949-26.261-75-54.472-100.92-97.188 1.7442-1.4589 209.26-2.7622 215.22-1.3332 9.8709 2.3656 11.776 16.997 2.8206 21.659-2.0287 1.0563-18.536-0.27898-86.22 0-35.587 0.14668-58.287-0.34133-71.959 0-7.1556 0.17865-19.718 0-19.718 0 5.6102 4.5341 7.3331 7.1008 13.475 10.014 12.409 5.8866 18.096 4.375 86.203 4.7761 32.929 0.19393 47.995 0.93295 57.846 0.93295 17.055 0 16.639 18.838 0.11278 18.838-6.3359 0.37236-20.053 0.30979-52.45 0.14151-35.568-0.18476-63.79 0.0475-63.179 0.63383 21.068 3.3971 35.591 10.956 47.316 22.27 34.766 33.775 125.64 45.019 195.53 24.193 12.446-3.7086 39.254-13.061 37.614-13.122-1.5365-0.0572-16.865 2.0641-26.523 3.6703-33.164 5.5156-29.418 5.2342-75.76 5.6954-23.116 0.23009-38.035-0.0263-47.141-1.5015-19.476-5.5776-12.017-21.133-1.1402-22.474 10.505-1.2001 35.254-1.033 96.255-1.0353 66.774-3e-3 92.447-0.33102 94.301-1.0405 4.7206-3.0153 12.585-8.3973 15.055-11.614h-74.576c-37.947-8.9e-4 -58.342 1.0758-69.422 0-23.312-3.4188-16.886-22.559-1.1718-24.201 6.8405-0.82627 17.083-1.1308 32.257-1.3825 63.82-1.0585 81.998-6.1355 97.818-27.319 7.2728-9.7391 4.8617-9.2939 50.303-9.2939 26.766 0 39.426-0.68621 49.637-0.68621-4.2209 5.5675-7.9754 12.3-18.973 26.229-60.046 76.047-158.35 119.82-259.19 110.52zm179.52-96.862c5.4653-2.6035 14.255-10.448 16.55-14.769 0.84912-1.5991-0.54033-0.86522-4.918 2.5974-3.3559 2.6544-10.007 7.3309-14.782 10.393-9.4638 6.0686-7.8124 7.0016 3.1497 1.7794zm98.345-54.277c-16.026 0.59807-48.314 3.6593-30.81-17.05 16.662-19.688 33.529-57.83 38.684-83.08 6.9625-34.101-1.3717-72.619-18.067-100.51l-5.1441-7.2274 4.3314-8.3329c22.519-43.321-5.2276-102.78-71.135-152.43l-9.579-7.2164c-1.415 7.7468-5.1579 12.172-9.7821 14.828-3.6135 2.0553-5.4326 3.9037-6.9597 7.0715-4.5099 9.3555-13.187 16.316-27.465 22.032-23.539 9.4234-29.938 16.869-28.474 33.132 3.1254 34.737 59.909 56.362 76.938 29.3 3.8458-6.1118 3.7559-8.0291-0.37617-8.0291-17.695 0-35.365-12.009-35.353-24.027 0.0272-27.806 79.34-27.218 86.783 0.64272 3.0239 11.317-7.9075 21.184-25.482 22.999l-6.1646 0.63653-1.0912 4.3676c-1.8231 7.2967-5.8009 14.027-11.769 19.913l-5.6768 5.5983 4.122 1.662c71.798 28.948 99.612 105.97 64.7 179.14-8.7512 17.819-22.451 37.084-37.743 49.822-7.444 6.0243-9.6041 7.4474-19.459 12.819l-7.2335 3.9431-181.75 1.8e-4c-16.562 0-16.798-24.697 0.93504-24.697 45.715-2.1778 93.149-10.688 124.85-26.508 14.367-7.2682 35.226-20.61 35.226-22.532 0-0.34086-98.601-0.73092-219.12-0.86487l-220.51-0.24511c-2.8687-16.867-8.4525-27.804-8.4525-74.863 0-160.13 132-297.92 299.26-297.92 199.65 0 300.6 164.71 300.6 308.24 0 49.047-20.131 104.11-39.957 139.39zm-140.03-15.698c6.0907-3.0058 10.385-6.9466 6.2224-5.7092-2.732 0.81195-14.467 7.1808-14.467 7.8516 0 1.115 3.472 0.21278 8.2446-2.1424zm62.372-9.1125c12.199-6.1 22.579-16.568 28.349-28.585 3.5411-7.377 2.7469-8.1379-1.9396-1.8584-6.9636 9.3304-16.832 19.017-27.584 27.074-10.567 7.9187-10.174 9.0446 1.1755 3.3694zm6.5768-39.721c33.836-45.216 25.829-103.84-14.067-102.99-6.8703 0.14645-17.049-0.10138-22.618-0.55074-10.08-0.81323-10.214-0.79531-28.933 3.8714-44.555 11.108-79.182 1.831-79.065-21.181 0.16008-31.457 63.211-38.016 95.995-9.9858 18.694 15.983 45.407 17.308 48.556 2.4073 2.7612-13.071-12.414-26.823-38.963-35.308-12.998-4.1542-32.558-10.074-40.99-12.405-12.789-3.5365-25.799-1.9171-46.777 5.8221-16.774 6.1886-20.534 6.9128-35.894 6.9128-7.5836 0-18.017 0.62601-23.185 1.3912-44.083 6.5261-75.372-2.8314-75.447-22.564-0.10482-27.498 59.937-34.679 95.057-11.369 18.13 12.033 30.493 14.655 45.385 9.6261 21.367-7.215 17.692-30.652-7.2994-46.544l-8.6108-5.4759-4.167 3.2058c-50.608 38.933-113.65-32.055-68.374-76.991 40.065-39.764 105.38 5.9842 83.014 58.141-2.6232 6.1159-2.6538 6.0662 7.0121 11.373 7.6319 4.1908 8.6008 4.0387 10.279-1.6144 4.5268-15.256 14.753-24.987 33.864-32.221 11.231-4.2516 21.178-10.411 21.186-13.119 9.7e-4 -0.37933-4.3059-0.552-9.5711-0.38372-53.011 1.6943-57.026-38.986-4.5404-46.004 5.9898-0.80095 5.6356-1.0657-10.154-7.5893-46.626-19.263-97.899-24.839-148.3-16.125-142.96 24.715-250.15 166.96-175.65 233.09 3.9862 3.5384 14.198 13.493 22.692 22.123 25.357 25.759 37.727 29.901 85.907 28.765 29.329-0.69129 33.407 0.30266 58.776 14.324 16.795 9.2832 36.506 14.785 73.413 20.492 13.653 2.1113 16.895 3.0583 15.452 4.514-1.2623 1.2729-153.89 1.5441-164.8 0.29283-14.869-1.7054-23.808-5.237-39.437-15.58-12.552-8.3071-18.597-10.948-37.557-16.405-18.406-5.2982-20.887-6.2177-32.173-11.924-9.452-4.7794-17.521-10.541-25.386-18.127-3.3154-3.1976-6.0279-5.6146-6.0279-5.3712 0 13.049 32.688 38.452 62.765 48.773 14.869 5.1032 20.7 7.761 29.566 13.477 12.935 8.3389 29.201 13.979 48.963 16.976 5.6281 0.85362 47.771 1.32 155.76 1.724 160.68 0.60097 151.34 0.22716 153.26 6.1355 1.6648 5.1264-3.6507 19.507-9.9126 26.817l-3.0171 3.5223 4.6076-3.7622c2.5342-2.0692 6.7703-6.6522 9.4137-10.185zm-70.924-35.811c-9.8648-0.99105-6.4884-2.2921 12.05-4.6434 27.533-3.4922 43.146-9.9186 56.602-23.299l8.1407-8.0945 0.9885 2.5798c3.1388 8.1916 0.0958 27.3-5.0411 31.657l-2.9647 2.5143-32.959-0.1634c-18.128-0.0899-34.695-0.3378-36.817-0.55097zm-357.34 3.2298c0-0.22038-2.7911-2.4081-6.2025-4.8614-5.9666-4.291-21.058-19.837-24.78-25.527-2.827-4.3213-2.121-1.8634 1.6089 5.6012 4.3807 8.7673 13.419 18.009 20.701 21.166 2.9133 1.2634 5.948 2.6592 6.7437 3.102 1.7651 0.98195 1.929 1.026 1.929 0.51846zm28.933-1.384c0-0.44697-2.5238-1.5199-5.6086-2.3843-7.618-2.1346-23.997-10.52-30.198-15.461-4.6472-3.7023-4.9014-3.7979-3.0217-1.1374 7.0244 9.9422 18.767 16.682 32.606 18.714 3.1577 0.46375 5.8498 0.89651 5.9823 0.9617 0.13255 0.0652 0.24112-0.24716 0.24112-0.69413zm92.589-15.633c0-1.0834-12.082-5.2545-13.673-4.7202-1.315 0.44179 3.6035 4.185 6.4395 4.9006 3.346 0.84434 7.2335 0.74734 7.2335-0.18052zm-94.016-50.792c0-1.2071-14.948-8.7121-23.864-17.059-0.78086-0.73095 9.3279 14.424 19.524 16.762 4.0395 0.92608 4.3401 2.2305 4.3401 0.29758zm480.84-67.685c-5.4277 8.4818-11.746 18.362-10.164 25.348 2.6183 11.564 21.287 34.365 22.361 52.371 5.8533-20.053-20.625-40.74-17.012-56.593zm-136.14 43.274c-5.7229-3.9566-22.102-12.106-22.102-10.998 0 0.96715 9.2264 6.5052 13.985 8.3943 3.1827 1.2635 6.1918 2.64 6.6869 3.0589 0.4951 0.41888 1.1099 0.55017 1.3663 0.29177 0.25638-0.2584 0.28532-0.59484 0.0644-0.74764zm-106.49-55.734 5.7868 2.5041-5.7868-2.5041c-18.044-8.7493-27.835-20.485-47.715-20.396l-13.768 0.49578c30.746-3.4413 40.996 19.973 61.483 19.9zm-278.31 245.58c-2.0419-2.5044-14.133-25.386-12.664-25.883 5.2842-1.7879 176.09 0.61829 181.95 0.61829 11.485-0.12477 10.713 16.739-0.28529 16.739-3.7962 0-11.1-0.23478-31.875-0.21954-35.486 0.026-38.286 0.35005-46.346 5.3642l-5.4017 3.3606h-41.576c-14.832 0-27.516 0.0201-43.797 0.0201zm-26.15-61.259 107.74 1e-4c63.07 0 96.145 0.0452 106.24 0.17645 11.099 0 10.923 15.862 1.1113 15.862h-93.908l-12.755 6.3182-48.678 4e-4c-45.149 3.7e-4 -39.927-0.0103-52.056 0-3.0398-7.6375-6.0835-16.243-7.696-22.357z" stroke-width=".96824"/>
  <g stroke-width=".99899">
   <ellipse cx="167.92" cy="191.18" rx="4.4729" ry="4.508"/>
   <ellipse cx="226.66" cy="149.41" rx="6.262" ry="6.3111"/>
   <ellipse cx="120.8" cy="255.49" rx="6.5602" ry="6.6117"/>
   <ellipse cx="165.16" cy="285.62" rx="3.6528" ry="3.6815"/>
   <ellipse cx="267.22" cy="397.04" rx="6.262" ry="6.3111"/>
   <ellipse cx="328.64" cy="397.04" rx="4.4729" ry="4.508"/>
   <ellipse cx="360.85" cy="397.04" rx="3.2801" ry="3.3059"/>
   <ellipse cx="242.17" cy="433.11" rx="4.4729" ry="4.508"/>
   <ellipse cx="294.06" cy="474.58" rx="6.8584" ry="6.9123"/>
   <ellipse cx="324.47" cy="474.58" rx="4.4729" ry="4.508"/>
   <ellipse cx="405.13" cy="475.93" rx="3.4292" ry="3.4561"/>
   <ellipse cx="282.73" cy="514.86" rx="4.4729" ry="4.508"/>
   <ellipse cx="225.48" cy="549.11" rx="6.262" ry="6.3111"/>
   <ellipse cx="415.72" cy="317.1" rx="4.4729" ry="4.508"/>
   <ellipse cx="280.34" cy="264.21" rx="9.244" ry="9.3164"/>
  </g>
 </g>
</svg>
